<svg width="21" height="21" viewBox="0 0 21 21" fill="none" xmlns="http://www.w3.org/2000/svg">
<path d="M14.6836 2.69426C14.9025 2.47539 15.1623 2.30178 15.4483 2.18332C15.7342 2.06487 16.0407 2.00391 16.3503 2.00391C16.6598 2.00391 16.9663 2.06487 17.2523 2.18332C17.5382 2.30178 17.7981 2.47539 18.0169 2.69426C18.2358 2.91313 18.4094 3.17297 18.5279 3.45894C18.6463 3.7449 18.7073 4.0514 18.7073 4.36093C18.7073 4.67046 18.6463 4.97696 18.5279 5.26292C18.4094 5.54889 18.2358 5.80873 18.0169 6.0276L6.76693 17.2776L2.18359 18.5276L3.43359 13.9443L14.6836 2.69426Z" stroke="#767A9C" stroke-width="2" stroke-linecap="round" stroke-linejoin="round"/>
</svg>
