<svg width="20" height="20" viewBox="0 0 20 20" fill="none" xmlns="http://www.w3.org/2000/svg">
<path d="M12.7212 10.4037C13.203 11.6054 13.2551 12.9366 12.8687 14.1724C12.4822 15.4081 11.681 16.4725 10.6004 17.1856C9.5198 17.8988 8.22609 18.217 6.93797 18.0864C5.64985 17.9558 4.44632 17.3845 3.53081 16.469C2.6153 15.5535 2.04397 14.3499 1.9134 13.0618C1.78282 11.7737 2.101 10.48 2.81417 9.39937C3.52733 8.31876 4.59173 7.51753 5.82744 7.13111C7.06316 6.74469 8.39439 6.79678 9.59614 7.27858L9.59609 7.2787L10.6248 6.24997H12.4998V4.37497H14.3748V2.49997H17.4998V5.62497L12.7211 10.4037L12.7212 10.4037Z" stroke="#767A9C" stroke-width="2" stroke-linecap="round" stroke-linejoin="round"/>
<path d="M5.9375 13.125C5.41973 13.125 5 13.5447 5 14.0625C5 14.5803 5.41973 15 5.9375 15C6.45527 15 6.875 14.5803 6.875 14.0625C6.875 13.5447 6.45527 13.125 5.9375 13.125Z" fill="#767A9C"/>
</svg>
