<svg width="98" height="32" viewBox="0 0 98 32" fill="none" xmlns="http://www.w3.org/2000/svg">
<path d="M16.8287 31.527C21.3957 31.527 25.6113 29.5509 28.5535 26.477L23.8548 22.2613C22.0983 24.2813 19.5952 25.6426 16.8287 25.6426C11.7787 25.6426 7.47522 21.1635 7.47522 15.8939C7.47522 10.6683 11.7787 6.18913 16.8287 6.18913C19.5952 6.18913 22.0983 7.55043 23.8548 9.57043L28.5535 5.35478C25.6113 2.23695 21.3957 0.30478 16.8287 0.30478C8.17783 0.30478 0.800435 7.4187 0.800435 15.8939C0.800435 24.3691 8.17783 31.527 16.8287 31.527ZM62.467 31L55.0457 20.4609C59.1736 19.0117 61.8962 15.4987 61.8962 11.0196C61.8962 5.04739 57.0657 0.831737 50.5227 0.831737H36.9536V31H43.4088V21.2074H48.1953L55.0897 31H62.467ZM43.4088 6.76H49.8201C53.0257 6.76 55.2214 8.4287 55.2214 11.0196C55.2214 13.6104 53.0257 15.2791 49.8201 15.2791H43.4088V6.76ZM71.3697 31H87.2223C92.9749 31 97.1028 27.6626 97.1028 22.8322C97.1028 19.4948 95.0828 16.6843 91.5697 15.1035C94.2484 13.6983 95.7854 11.4587 95.7854 8.38478C95.7854 3.99348 92.0528 0.831737 86.6515 0.831737H71.3697V31ZM77.8249 12.9957V6.36478H85.0267C87.4419 6.36478 89.1545 7.77 89.1545 9.65826C89.1545 11.5904 87.4419 12.9957 85.0267 12.9957H77.8249ZM77.8249 25.467V18.0896H86.0367C88.6276 18.0896 90.4719 19.6265 90.4719 21.7783C90.4719 23.93 88.6276 25.467 86.0367 25.467H77.8249Z" fill="#EA4C89"/>
</svg>
