<svg width="19" height="19" viewBox="0 0 19 19" fill="none" xmlns="http://www.w3.org/2000/svg">
<path d="M3.18079 5.18665H4.68498H16.7185" stroke="#767A9C" stroke-width="1.5042" stroke-linecap="round" stroke-linejoin="round"/>
<path d="M15.2143 5.18661V15.716C15.2143 16.1149 15.0558 16.4975 14.7737 16.7796C14.4916 17.0617 14.109 17.2202 13.7101 17.2202H6.18913C5.79019 17.2202 5.4076 17.0617 5.12551 16.7796C4.84341 16.4975 4.68494 16.1149 4.68494 15.716V5.18661M6.94123 5.18661V3.68242C6.94123 3.28348 7.09971 2.90088 7.3818 2.61879C7.66389 2.3367 8.04649 2.17822 8.44542 2.17822H11.4538C11.8528 2.17822 12.2354 2.3367 12.5174 2.61879C12.7995 2.90088 12.958 3.28348 12.958 3.68242V5.18661" stroke="#767A9C" stroke-width="1.5042" stroke-linecap="round" stroke-linejoin="round"/>
<path d="M8.44556 8.94714V13.4597" stroke="#767A9C" stroke-width="1.5042" stroke-linecap="round" stroke-linejoin="round"/>
<path d="M11.4539 8.94714V13.4597" stroke="#767A9C" stroke-width="1.5042" stroke-linecap="round" stroke-linejoin="round"/>
</svg>
